# xmcd CD database file
#
# Track frame offsets:
#	150
#	18075
#	37460
#	50211
#	63298
#	84018
#	93566
#	104382
#	120797
#	136475
#	150197
#	172116
#	193641
#	208426
#
# Disc length: 2988 seconds
#
# Revision: 2
# Processed by: cddbd v1.5.2PL0 Copyright (c) Steve Scherf et al.
# Submitted via: CDex 1.70beta2
#
DISCID=bc0baa0e
DTITLE=Pablo Carbonell - Rock'n Roll Alimaña
DYEAR=2004
DGENRE=Swing
TTITLE0=Conversaciones encubiertas
TTITLE1=No voy a ser yo quien te lo explique
TTITLE2=A tu casa
TTITLE3=La madre
TTITLE4=Mi agüita amarilla
TTITLE5=Todas las personas son iguales
TTITLE6=Amanecer Zulú
TTITLE7=Hoy es domingo
TTITLE8=T.V.
TTITLE9=Manolito
TTITLE10=La nana
TTITLE11=Blues Man
TTITLE12=My way
TTITLE13=Corriente alterna
EXTD=YEAR: 2004
EXTT0=
EXTT1=
EXTT2=
EXTT3=
EXTT4=
EXTT5=
EXTT6=
EXTT7=
EXTT8=
EXTT9=
EXTT10=
EXTT11=
EXTT12=
EXTT13=
PLAYORDER=
